<?xml version="1.0" standalone="no"?><!DOCTYPE svg PUBLIC "-//W3C//DTD SVG 1.1//EN" "http://www.w3.org/Graphics/SVG/1.1/DTD/svg11.dtd"><svg class="icon" width="200px" height="200.00px" viewBox="0 0 1024 1024" version="1.1" xmlns="http://www.w3.org/2000/svg"><path fill="#1a1a1a" d="M640 53.333333c38.613333 0 61.013333-0.085333 80.213333 2.474667a288 288 0 0 1 247.978667 247.936c2.56 19.242667 2.474667 41.642667 2.474667 80.256v21.333333a32 32 0 0 1-64 0V384c0-40.661333-0.085333-57.898667-1.92-71.936a224 224 0 0 0-192.853334-192.853333c-13.994667-1.792-31.232-1.877333-71.893333-1.877334h-145.066667c-72.192 0-124.458667 0-165.546666 3.413334-40.661333 3.285333-67.626667 9.728-89.770667 20.992a224 224 0 0 0-97.877333 97.877333c-11.264 22.144-17.706667 49.066667-21.034667 89.813333-3.370667 41.045333-3.370667 93.312-3.370667 165.504v34.133334c0 72.192 0 124.416 3.413334 165.546666 3.285333 40.661333 9.728 67.626667 20.992 89.770667a224 224 0 0 0 97.877333 97.877333c22.144 11.264 49.066667 17.706667 89.813333 21.034667 41.045333 3.370667 93.312 3.370667 165.504 3.370667H640c40.661333 0 57.898667-0.085333 71.936-1.92a224 224 0 0 0 192.853333-192.853334c1.792-13.994667 1.877333-31.232 1.877334-71.893333v-21.333333a32 32 0 0 1 64 0v21.333333c0 38.613333 0.085333 61.013333-2.474667 80.213333a288 288 0 0 1-247.936 247.978667c-19.242667 2.56-41.642667 2.474667-80.256 2.474667h-145.066667c-71.168 0-126.464 0-170.752-3.584-44.672-3.626667-80.981333-11.178667-113.578666-27.776a288.085333 288.085333 0 0 1-125.866667-125.866667c-16.64-32.682667-24.149333-68.949333-27.818667-113.621333-3.626667-44.288-3.584-99.584-3.584-170.752v-34.133334c0-71.168 0-126.464 3.584-170.752 3.669333-44.672 11.178667-80.981333 27.776-113.578666a288.085333 288.085333 0 0 1 125.866667-125.866667c32.64-16.64 68.949333-24.149333 113.621333-27.818667 44.288-3.626667 99.584-3.584 170.752-3.584H640z m-128 256a32 32 0 0 1 32 32v138.666667H682.666667a32 32 0 0 1 0 64h-138.666667V682.666667a32 32 0 0 1-64 0v-138.666667H341.333333a32 32 0 0 1 0-64h138.666667V341.333333a32 32 0 0 1 32-32z" /></svg>