<?xml version="1.0" standalone="no"?><!DOCTYPE svg PUBLIC "-//W3C//DTD SVG 1.1//EN" "http://www.w3.org/Graphics/SVG/1.1/DTD/svg11.dtd"><svg t="1783597664894" class="icon" viewBox="0 0 1024 1024" version="1.1" xmlns="http://www.w3.org/2000/svg" p-id="6385" xmlns:xlink="http://www.w3.org/1999/xlink" width="200" height="200"><path d="M775.975335 395.319293c-6.998653-1.852442-19.921957-2.784136-38.769911-2.784136l-80.314226 0 0 112.229009 81.174158 0c26.839117 0 45.901141-4.994173 57.181209-14.989816 11.278851-9.991994 16.92375-24.061063 16.92375-42.196258 0-13.132509-3.320529-24.37852-9.959154-33.728302C795.573753 404.498792 786.822396 398.3175 775.975335 395.319293L775.975335 395.319293zM775.975335 395.319293" fill="#e6212a" p-id="6386"></path><path d="M877.413233 263.805675 146.586735 263.805675C108.091711 263.805675 76.886038 295.012565 76.886038 333.506373L76.886038 691.448432c0 38.495024 31.205673 69.700697 69.700697 69.700697L877.413233 761.149129c38.493808 0 69.700697-31.204457 69.700697-69.700697L947.11393 333.506373C947.11393 295.012565 915.908257 263.805675 877.413233 263.805675L877.413233 263.805675zM333.271001 669.469693l-42.623184 0L168.997264 355.485111l44.975529 0 81.6023 228.097219c6.565646 18.281153 12.063372 35.414109 16.490743 51.402516 4.851864-17.131739 10.495547-34.264695 16.920101-51.402516l84.81336-228.097219 42.409113 0L333.271001 669.469693 333.271001 669.469693zM542.092124 669.469693l-41.550397 0L500.541727 355.485111l41.550397 0L542.092124 669.469693 542.092124 669.469693zM829.516125 514.081108c-16.990647 18.49644-47.687902 27.739187-92.092981 27.739187l-80.533162 0L656.889982 669.469693l-41.549181 0L615.340801 355.485111l118.438276 0c20.848785 0 36.76543 0.998591 47.76453 2.998206 15.422822 2.571281 28.341261 7.4645 38.765045 14.672359 10.418919 7.212724 18.810248 17.31297 25.166689 30.30317 6.352792 12.99385 9.531012 27.276989 9.531012 42.837254C855.006353 472.997774 846.511638 495.594398 829.516125 514.081108L829.516125 514.081108zM829.516125 514.081108" fill="#e6212a" p-id="6387"></path></svg>