<?xml version="1.0" standalone="no"?><!DOCTYPE svg PUBLIC "-//W3C//DTD SVG 1.1//EN" "http://www.w3.org/Graphics/SVG/1.1/DTD/svg11.dtd"><svg t="1783530005214" class="icon" viewBox="0 0 1024 1024" version="1.1" xmlns="http://www.w3.org/2000/svg" p-id="37010" xmlns:xlink="http://www.w3.org/1999/xlink" width="200" height="200"><path d="M912.001826 511.993556c0 287.074775-112.914143 400.00827-399.988919 400.00827S111.985286 799.068331 111.985286 511.993556c0-287.074775 112.933494-399.988918 400.027621-399.988918 287.055424 0 399.969567 112.914143 399.969567 400.008269z" fill="#FDDB00" p-id="37011"></path><path d="M705.234453 137.10312s-190.570434 113.397923-308.651342 87.389935c0 0-69.722306-19.544693-39.031333 37.173619 21.286299 39.360303 119.493545 202.355303 190.280166 319.488004a175.321703 156.667164 0 0 0-53.757582-7.585663 175.321703 156.667164 0 0 0-175.321703 156.667164 175.321703 156.667164 0 0 0 175.321703 156.667164 175.321703 156.667164 0 0 0 175.321703-156.667164 175.321703 156.667164 0 0 0-18.906104-70.728568v-0.019351l-0.580535-1.044964-161.272746-282.41114s178.495297-109.721198 216.597773-238.929036z" fill="#33C079" p-id="37012"></path></svg>